<svg width="246" height="15" viewBox="0 0 246 15" fill="none" xmlns="http://www.w3.org/2000/svg">
<path d="M12.5091 10.3456C1.07094 8.61275 2.921 9.75058 3.16928 9.05548C2.3562 8.73889 1.54108 8.52228 0.261909 8.0962C1.21033 7.51535 1.80157 7.22731 2.51185 6.84167C2.39686 6.73931 2.16686 6.53459 2.0539 6.33225C2.17296 6.23465 2.41109 6.03945 2.52811 6.04183C6.03484 6.31315 9.56598 5.38472 13.0727 5.65605C16.6965 5.92975 20.3223 6.10348 23.9562 5.87729C26.8879 5.63682 29.6986 5.59394 32.6263 5.55343C33.5626 5.57246 34.2525 6.18662 35.3159 5.70813C36.1432 5.32487 37.4244 5.65097 38.4777 5.67238C39.648 5.69617 40.8182 5.71996 41.9885 5.74375C43.0417 5.76516 44.095 5.78657 45.1482 5.80798C46.2014 5.82939 47.2547 5.8508 48.3079 5.87221C48.425 5.87459 48.427 5.77462 48.7842 5.48181C47.733 5.36042 46.9158 5.24379 46.0986 5.12716C46.1007 5.02718 46.1027 4.9272 46.1047 4.82722C47.158 4.84863 48.3303 4.77245 49.3835 4.79386C50.5538 4.81765 51.7241 4.84144 52.8943 4.86522C53.1284 4.86998 53.3624 4.87473 53.4774 4.97709C54.6192 6.40059 55.9106 6.2268 57.5632 5.56025C58.1544 5.2722 59.0846 5.59117 59.7867 5.60545C69.734 5.80766 79.7983 6.01224 89.7456 6.21445C90.7988 6.23586 92.0759 6.76193 93.0325 5.78117C93.0325 5.78117 93.2665 5.78592 93.3835 5.7883C94.3015 6.70715 95.2641 5.42645 96.0752 5.84302C96.9992 6.46193 97.5864 6.37384 98.5327 5.89298C98.7708 5.69778 99.4669 6.01199 99.931 6.22146C100.51 6.5333 100.504 6.83324 99.9127 7.12129C100.028 7.22365 100.141 7.42597 100.258 7.42835C100.492 7.43311 100.726 7.43787 100.843 7.44024C101.083 7.14506 101.091 6.74515 101.329 6.54995C101.686 6.25715 102.161 5.96672 102.629 5.97624C103.331 5.99051 104.257 6.50944 104.846 6.32138C105.673 5.93811 106.256 6.04999 107.07 6.36658C107.651 6.57843 108.48 6.09518 109.299 6.11184C112.225 6.17131 115.268 6.23316 118.193 6.29264C118.536 6.69969 118.764 7.00439 118.99 7.40907C119.347 7.11627 119.821 6.82584 120.534 6.34021C121.827 6.06644 123.913 7.10907 125.237 5.33561C125.58 5.74266 125.925 6.04974 126.27 6.35681C128.857 5.80927 131.199 5.75687 133.643 6.50668C136.238 5.55923 138.794 6.51138 141.377 6.1638C141.367 6.66369 141.12 7.2588 141.237 7.26118C142.167 7.58015 142.067 6.77794 142.311 6.2828C143.364 6.30421 144.534 6.328 145.705 6.35179C145.83 5.95425 146.07 5.65907 146.193 5.36151C146.308 5.46387 146.542 5.46864 146.657 5.571C147.226 6.38273 148.273 6.70406 149.098 6.42078C150.987 5.659 152.968 6.09936 154.96 6.03983C156.6 5.97315 158.354 6.10882 160 5.74221C158.949 5.62082 158.015 5.50181 156.964 5.38042C159.308 5.22804 161.788 4.17822 163.507 6.01353C164.681 5.83736 165.739 5.65882 166.675 5.67785C169.718 5.7397 172.76 5.80156 175.803 5.86341C176.047 5.36827 176.17 5.07071 176.297 4.57319C176.751 5.28256 177.209 5.79197 177.667 6.30138C177.915 5.60629 178.4 4.81597 179.326 5.33489C180.25 5.9538 180.843 5.56578 181.783 5.38485C183.428 5.11822 185.179 5.35387 186.824 5.08723C186.007 4.9706 185.189 4.85397 184.372 4.73734C184.493 4.53976 184.614 4.34218 184.731 4.34456C187.072 4.39214 189.415 4.33974 191.753 4.4873C193.506 4.62296 195.133 5.25614 196.892 5.09187C197.126 5.09662 197.479 5.00377 197.719 4.70859C196.902 4.59196 195.968 4.47295 195.149 4.4563C197.845 4.31106 200.433 3.66354 203.107 4.61807C204.269 5.04177 205.796 4.77277 207.207 4.50138C206.624 4.3895 206.041 4.27762 205.459 4.06576C205.579 3.96816 205.702 3.67061 205.702 3.67061C206.755 3.69202 207.808 3.71343 208.861 3.73484C209.422 4.94649 210.278 3.16351 211.198 3.98238C211.773 4.49417 212.967 3.3182 214.119 4.24181C214.694 4.7536 216.341 4.387 217.519 4.01087C216.702 3.89424 215.885 3.7776 215.068 3.66097C215.306 3.46577 215.427 3.26818 215.544 3.27056C217.182 3.30386 218.704 3.33479 220.342 3.36809C223.504 3.33235 226.547 3.39421 229.599 2.95616C231.244 2.68953 232.882 2.72284 234.408 2.5538C235.814 2.48237 237.112 2.00864 237.727 0.520841C238.312 0.532736 239.487 0.356568 239.6 0.558904C240.047 1.56821 241.45 1.69675 241.784 2.50372C242.119 3.31069 242.583 3.52016 243.277 3.93435C244.785 4.66513 245.107 6.07198 244.259 7.45504C244.719 7.86447 245.062 8.27153 245.524 8.58098C245.52 8.78094 245.516 8.9809 245.397 9.0785C244.203 10.2545 242.788 10.7258 240.912 10.8877C237.746 11.1234 234.687 11.8614 231.529 11.6972C229.636 12.6589 227.659 12.0186 225.666 12.1781C224.142 12.2472 222.615 12.5162 221.091 12.5852C219.568 12.6543 217.938 12.2211 216.642 12.5948C214.758 13.1566 212.887 13.0186 211.134 12.8829C208.797 12.6354 206.673 13.4924 204.334 13.3448C201.994 13.2972 199.544 12.8474 197.311 13.3021C192.964 14.0139 188.651 13.126 184.427 13.5403C179.149 14.0331 173.895 13.3262 168.734 13.8214C161.813 14.4808 154.803 13.7382 147.895 13.7978C147.076 13.7812 146.139 13.7622 145.32 13.7455C144.618 13.7312 143.803 13.5146 143.321 14.205C142.988 13.298 142.148 14.2811 141.454 13.867C141.109 13.5599 140.044 14.1384 139.225 14.1217C138.403 14.205 137.469 14.086 136.65 14.0694C135.948 14.0551 135.129 14.0384 134.427 14.0242C133.607 14.0075 132.671 13.9885 131.852 13.9718C131.033 13.9552 130.097 13.9361 129.277 13.9195C128.575 13.9052 127.756 13.8886 127.054 13.8743C126.235 13.8576 125.296 13.9386 124.479 13.822C123.428 13.7006 122.486 13.9815 121.445 13.3602C120.983 13.0507 119.798 13.7268 118.862 13.7078C116.168 13.753 113.596 13.6007 110.904 13.546C109.968 13.527 108.806 13.1033 107.968 13.9864C107.371 14.5744 107.052 12.9676 106.215 13.8508C105.975 14.1459 104.571 14.1174 104.458 13.9151C103.661 12.7986 102.69 14.4792 102.119 13.7675C101.32 12.751 100.711 13.9389 100.011 13.8247C99.6595 13.8175 99.1934 13.708 98.8443 13.6009C98.1442 13.4867 97.0991 13.0653 96.861 13.2605C96.0235 14.1437 94.9886 13.2225 94.0442 13.6033C93.0999 13.9842 91.7017 13.6558 90.6484 13.6343C69.8176 13.2109 48.9869 12.7874 28.1561 12.364C25.3475 12.3069 22.551 11.6499 19.8371 12.695C18.4531 11.6666 17.0264 12.7379 15.6221 12.7093C11.1791 12.419 6.73005 12.4285 1.93195 12.331C2.05711 11.9335 2.18635 11.336 2.4204 11.3407C4.64797 11.186 6.88163 10.7313 9.22013 10.8788C13.8992 11.074 18.5823 11.0691 23.2633 11.1643C23.3804 11.1667 23.6185 10.9715 23.7376 10.8739C23.5055 10.7691 23.2735 10.6644 23.1585 10.5621C22.5754 10.4502 22.1195 9.84079 21.4031 10.5264C21.282 10.724 20.5839 10.5097 20.1158 10.5002C13.9093 10.5741 7.70691 10.448 12.5091 10.3456C23.6286 10.4716 23.6266 10.5716 23.6246 10.6715C24.5567 10.8905 25.6039 11.2119 26.536 11.4309C27.1191 11.5427 30.3979 11.5094 30.9831 11.5213C31.4512 11.5308 32.0322 11.7426 32.1533 11.5451C32.9908 10.6619 34.1529 11.0856 35.0891 11.1046C50.1856 11.4115 65.282 11.7184 80.3785 12.0253C81.3147 12.0443 82.2591 11.6634 83.062 12.4799C83.177 12.5823 83.7601 12.6941 83.8791 12.5965C84.8336 11.7158 86.1108 12.2418 87.1661 12.1633C89.3936 12.0085 91.724 12.556 93.9638 11.8013C94.553 11.6133 95.6001 11.9346 96.2982 12.1489C97.8135 12.4797 99.3307 12.7106 100.864 12.1417C101.336 11.9512 102.022 12.7653 102.507 11.975C103.308 12.8915 104.716 12.7201 105.424 12.4344C106.605 11.9583 107.404 12.9747 108.465 12.5962C108.701 12.501 108.933 12.6057 109.054 12.4082C109.532 11.9178 109.998 12.0273 110.695 12.3415C111.391 12.6557 112.442 12.7771 113.148 12.5914C114.09 12.3105 115.148 12.1319 115.848 12.2462C116.897 12.4676 117.839 12.1867 118.892 12.2081C126.737 12.1675 134.451 12.8244 142.308 12.184C148.172 11.703 154.007 12.6218 159.989 12.0433C165.387 11.4529 170.869 12.4645 176.385 11.7765C180.727 11.2646 185.158 12.1548 189.504 11.443C191.502 11.0836 193.715 11.6286 195.826 11.4715C197.817 11.412 199.684 11.75 201.685 11.1905C203.57 10.6287 205.9 11.1762 208.009 11.119C208.36 11.1262 208.713 11.0333 208.949 10.9381C208.489 10.5287 208.138 10.5215 207.787 10.5144C204.04 10.5383 200.297 10.3622 196.542 10.7859C191.966 11.293 187.418 10.4004 182.723 11.0051C178.379 11.6169 173.956 10.3268 169.604 11.3385C169.015 11.5266 168.454 10.315 167.848 11.3029C167.164 10.3888 166.559 11.3767 165.857 11.3624C160.589 11.3553 155.333 10.7484 150.165 11.5435C149.461 11.6292 148.406 11.7078 148.061 11.4007C147.139 10.6818 146.648 11.7721 145.95 11.5579C145.252 11.3436 144.429 11.5269 143.727 11.5127C139.514 11.427 135.184 11.339 130.971 11.2534C129.917 11.2319 128.638 10.8059 127.684 11.6866C127.565 11.7842 126.986 11.4724 126.637 11.3653C126.171 11.2558 125.355 11.0392 125.236 11.1368C124.637 11.8248 124.298 11.2177 123.832 11.1082C123.366 10.9987 122.769 11.5867 122.183 11.5748C121.247 11.5558 120.303 11.9367 119.502 11.0202C118.905 11.6082 117.971 11.4892 117.268 11.4749C116.449 11.4583 115.509 11.6392 114.938 10.9274C114.337 11.7154 113.406 11.3964 112.587 11.3798C107.321 11.2727 101.94 11.0633 96.6716 11.0562C91.4034 11.0492 86.1514 10.2422 80.9799 11.2373C80.4049 10.7256 79.4626 11.0065 78.7625 10.8922C77.8283 10.7732 76.884 11.1541 75.9477 11.1351C74.8945 11.1136 73.6011 11.3874 72.6812 10.5685C71.6076 11.5469 70.2134 11.0185 69.0432 10.9947C55 10.7092 40.9567 10.4238 26.9135 10.1383C25.7392 10.3145 24.686 10.293 12.5091 10.3456Z" fill="black"/>
</svg>
